<?xml version="1.0" encoding="UTF-8" standalone="no"?>
<!-- Created with Inkscape (http://www.inkscape.org/) -->

<svg
   xmlns:dc="http://purl.org/dc/elements/1.1/"
   xmlns:cc="http://creativecommons.org/ns#"
   xmlns:rdf="http://www.w3.org/1999/02/22-rdf-syntax-ns#"
   xmlns:svg="http://www.w3.org/2000/svg"
   xmlns="http://www.w3.org/2000/svg"
   xmlns:xlink="http://www.w3.org/1999/xlink"
   xmlns:sodipodi="http://sodipodi.sourceforge.net/DTD/sodipodi-0.dtd"
   xmlns:inkscape="http://www.inkscape.org/namespaces/inkscape"
   width="32"
   height="32"
   id="svg2"
   version="1.1"
   inkscape:version="0.48.0 r9654"
   sodipodi:docname="cog.svg"
   style="display:inline"
   inkscape:export-filename="C:\Users\martin Boudreau\Sites Web\mentalistzlite\images\icones2\cog.png"
   inkscape:export-xdpi="45"
   inkscape:export-ydpi="45">
  <defs
     id="defs4">
    <linearGradient
       id="linearGradient4777">
      <stop
         style="stop-color:#f5f5f5;stop-opacity:1;"
         offset="0"
         id="stop4779" />
      <stop
         style="stop-color:#b5b5b5;stop-opacity:1;"
         offset="1"
         id="stop4781" />
    </linearGradient>
    <linearGradient
       id="linearGradient4765">
      <stop
         style="stop-color:#333333;stop-opacity:1;"
         offset="0"
         id="stop4767" />
      <stop
         style="stop-color:#ececec;stop-opacity:1;"
         offset="1"
         id="stop4769" />
    </linearGradient>
    <linearGradient
       inkscape:collect="always"
       xlink:href="#linearGradient4765"
       id="linearGradient4771"
       x1="30.15625"
       y1="24.5"
       x2="7.5"
       y2="1.84375"
       gradientUnits="userSpaceOnUse" />
    <linearGradient
       inkscape:collect="always"
       xlink:href="#linearGradient4777"
       id="linearGradient4783"
       x1="7.5"
       y1="4.65625"
       x2="27.34375"
       y2="24.5"
       gradientUnits="userSpaceOnUse" />
  </defs>
  <sodipodi:namedview
     id="base"
     pagecolor="#8a8a8a"
     bordercolor="#cccccc"
     borderopacity="1"
     inkscape:pageopacity="0"
     inkscape:pageshadow="2"
     inkscape:zoom="15.46875"
     inkscape:cx="7.9191919"
     inkscape:cy="16"
     inkscape:document-units="px"
     inkscape:current-layer="layer15"
     showgrid="true"
     inkscape:window-width="1366"
     inkscape:window-height="716"
     inkscape:window-x="-8"
     inkscape:window-y="-8"
     inkscape:window-maximized="1"
     fit-margin-top="0"
     fit-margin-left="0"
     fit-margin-right="0"
     fit-margin-bottom="0"
     inkscape:snap-grids="true"
     inkscape:snap-smooth-nodes="false"
     inkscape:object-nodes="true"
     inkscape:snap-nodes="true"
     inkscape:snap-bbox="true"
     inkscape:snap-global="true"
     inkscape:snap-page="true"
     inkscape:object-paths="true"
     inkscape:snap-bbox-edge-midpoints="true"
     showguides="true"
     inkscape:guide-bbox="true"
     showborder="false"
     borderlayer="false"
     inkscape:showpageshadow="false">
    <inkscape:grid
       type="xygrid"
       id="grid2988"
       empspacing="2"
       visible="true"
       enabled="true"
       snapvisiblegridlinesonly="true" />
    <inkscape:grid
       type="xygrid"
       id="grid4286"
       empspacing="32"
       visible="true"
       enabled="true"
       snapvisiblegridlinesonly="true"
       empcolor="#000000"
       empopacity="1"
       spacingx="32px"
       spacingy="32px"
       color="#000000"
       opacity="1" />
  </sodipodi:namedview>
  <metadata
     id="metadata7">
    <rdf:RDF>
      <cc:Work
         rdf:about="">
        <dc:format>image/svg+xml</dc:format>
        <dc:type
           rdf:resource="http://purl.org/dc/dcmitype/StillImage" />
        <dc:title></dc:title>
      </cc:Work>
    </rdf:RDF>
  </metadata>
  <g
     inkscape:groupmode="layer"
     id="layer15"
     inkscape:label="Cog"
     style="display:inline">
    <path
       id="path4746"
       style="color:#000000;fill:url(#linearGradient4771);fill-opacity:1;fill-rule:evenodd;stroke:none;stroke-width:4;marker:none;visibility:visible;display:inline;overflow:visible;enable-background:accumulate"
       d="m 20,16 c 0,2.209139 -1.790861,4 -4,4 -2.209139,0 -4,-1.790861 -4,-4 0,-2.209139 1.790861,-4 4,-4 2.209139,0 4,1.790861 4,4 z M 12,0 12,4.6875 c -0.398017,0.141214 -0.778816,0.3192241 -1.15625,0.5 L 7.5,1.84375 1.84375,7.5 5.1875,10.84375 C 5.0067241,11.221184 4.828714,11.601983 4.6875,12 L 0,12 l 0,8 4.6875,0 c 0.141214,0.398017 0.3192241,0.778816 0.5,1.15625 L 1.84375,24.5 7.5,30.15625 10.84375,26.8125 c 0.377434,0.180776 0.758233,0.358786 1.15625,0.5 L 12,32 l 8,0 0,-4.6875 c 0.398017,-0.141214 0.778816,-0.319224 1.15625,-0.5 L 24.5,30.15625 30.15625,24.5 26.8125,21.15625 C 26.993276,20.778816 27.171286,20.398017 27.3125,20 L 32,20 l 0,-8 -4.6875,0 c -0.141214,-0.398017 -0.319224,-0.778816 -0.5,-1.15625 L 30.15625,7.5 24.5,1.84375 21.15625,5.1875 C 20.778816,5.0067241 20.398017,4.828714 20,4.6875 L 20,0 12,0 z"
       inkscape:connector-curvature="0" />
    <path
       id="path4750"
       style="color:#000000;fill:url(#linearGradient4783);fill-opacity:1;fill-rule:evenodd;stroke:none;stroke-width:4;marker:none;visibility:visible;display:inline;overflow:visible;enable-background:accumulate"
       d="m 22,16 c 0,3.313708 -2.686292,6 -6,6 -3.313708,0 -6,-2.686292 -6,-6 0,-3.313708 2.686292,-6 6,-6 3.313708,0 6,2.686292 6,6 z M 14,2 14,6.09375 12.65625,6.5625 C 12.378544,6.6610282 12.08484,6.8246576 11.71875,7 L 10.4375,7.59375 7.5,4.65625 4.65625,7.5 7.59375,10.4375 7,11.71875 c -0.1753424,0.36609 -0.3389718,0.659794 -0.4375,0.9375 L 6.09375,14 2,14 2,18 6.09375,18 6.5625,19.34375 C 6.661028,19.621456 6.824658,19.91516 7,20.28125 L 7.59375,21.5625 4.65625,24.5 7.5,27.34375 10.4375,24.40625 11.71875,25 c 0.36609,0.175342 0.659794,0.33897 0.9375,0.4375 L 14,25.90625 14,30 l 4,0 0,-4.09375 1.34375,-0.46875 C 19.621456,25.338972 19.91516,25.175342 20.28125,25 L 21.5625,24.40625 24.5,27.34375 27.34375,24.5 24.40625,21.5625 25,20.28125 c 0.175342,-0.36609 0.33897,-0.659794 0.4375,-0.9375 L 25.90625,18 30,18 30,14 25.90625,14 25.4375,12.65625 C 25.338972,12.378544 25.175342,12.08484 25,11.71875 L 24.40625,10.4375 27.34375,7.5 24.5,4.65625 21.5625,7.59375 20.28125,7 C 19.91516,6.8246576 19.621456,6.661028 19.34375,6.5625 L 18,6.09375 18,2 14,2 z"
       inkscape:connector-curvature="0" />
  </g>
</svg>
