<?xml version="1.0" encoding="UTF-8" standalone="no"?>
<!-- Created with Inkscape (http://www.inkscape.org/) -->

<svg
   xmlns:dc="http://purl.org/dc/elements/1.1/"
   xmlns:cc="http://creativecommons.org/ns#"
   xmlns:rdf="http://www.w3.org/1999/02/22-rdf-syntax-ns#"
   xmlns:svg="http://www.w3.org/2000/svg"
   xmlns="http://www.w3.org/2000/svg"
   xmlns:sodipodi="http://sodipodi.sourceforge.net/DTD/sodipodi-0.dtd"
   xmlns:inkscape="http://www.inkscape.org/namespaces/inkscape"
   width="32"
   height="32"
   id="svg2"
   version="1.1"
   inkscape:version="0.48.0 r9654"
   sodipodi:docname="error.svg"
   style="display:inline"
   inkscape:export-filename="C:\Users\martin Boudreau\Sites Web\mentalistzlite\images\icones2\error.png"
   inkscape:export-xdpi="45"
   inkscape:export-ydpi="45">
  <defs
     id="defs4" />
  <sodipodi:namedview
     id="base"
     pagecolor="#8a8a8a"
     bordercolor="#cccccc"
     borderopacity="1"
     inkscape:pageopacity="0"
     inkscape:pageshadow="2"
     inkscape:zoom="15.46875"
     inkscape:cx="7.9191919"
     inkscape:cy="16"
     inkscape:document-units="px"
     inkscape:current-layer="layer13"
     showgrid="true"
     inkscape:window-width="1366"
     inkscape:window-height="716"
     inkscape:window-x="-8"
     inkscape:window-y="-8"
     inkscape:window-maximized="1"
     fit-margin-top="0"
     fit-margin-left="0"
     fit-margin-right="0"
     fit-margin-bottom="0"
     inkscape:snap-grids="true"
     inkscape:snap-smooth-nodes="false"
     inkscape:object-nodes="true"
     inkscape:snap-nodes="true"
     inkscape:snap-bbox="true"
     inkscape:snap-global="true"
     inkscape:snap-page="true"
     inkscape:object-paths="true"
     inkscape:snap-bbox-edge-midpoints="true"
     showguides="true"
     inkscape:guide-bbox="true"
     showborder="false"
     borderlayer="false"
     inkscape:showpageshadow="false">
    <inkscape:grid
       type="xygrid"
       id="grid2988"
       empspacing="2"
       visible="true"
       enabled="true"
       snapvisiblegridlinesonly="true" />
    <inkscape:grid
       type="xygrid"
       id="grid4286"
       empspacing="32"
       visible="true"
       enabled="true"
       snapvisiblegridlinesonly="true"
       empcolor="#000000"
       empopacity="1"
       spacingx="32px"
       spacingy="32px"
       color="#000000"
       opacity="1" />
  </sodipodi:namedview>
  <metadata
     id="metadata7">
    <rdf:RDF>
      <cc:Work
         rdf:about="">
        <dc:format>image/svg+xml</dc:format>
        <dc:type
           rdf:resource="http://purl.org/dc/dcmitype/StillImage" />
        <dc:title></dc:title>
      </cc:Work>
    </rdf:RDF>
  </metadata>
  <g
     inkscape:groupmode="layer"
     id="layer13"
     inkscape:label="Error"
     style="display:inline">
    <path
       style="color:#000000;fill:#e58800;fill-opacity:1;fill-rule:evenodd;stroke:none;stroke-width:0.75599998;marker:none;visibility:visible;display:inline;overflow:visible;enable-background:accumulate"
       d="m 15.875,2 c -0.640436,0.044855 -1.248572,0.4074802 -1.59375,1 l -14,24.03125 C -0.271035,27.979282 0.04341432,29.171403 1,29.71875 1.3188616,29.901199 1.6566167,30.002146 2,30 c 0.042923,-2.68e-4 0.082304,0.003 0.125,0 L 16,30 29.875,30 c 0.0427,0.003 0.08208,-2.68e-4 0.125,0 0.343383,0.0022 0.681138,-0.0988 1,-0.28125 0.956585,-0.547347 1.271035,-1.739468 0.71875,-2.6875 L 17.71875,3 C 17.373572,2.4074802 16.765436,2.0448553 16.125,2 16.08282,1.99705 16.04209,1.9999164 16,2 15.95791,1.9999164 15.91718,1.99705 15.875,2 z"
       id="path4553"
       inkscape:connector-curvature="0" />
    <path
       style="color:#000000;fill:#ffffff;fill-opacity:1;fill-rule:evenodd;stroke:none;stroke-width:0.75599998;marker:none;visibility:visible;display:inline;overflow:visible;enable-background:accumulate"
       d="M 15.96875,4.0625 C 11.5217,11.97 6.150136,20.290704 2.25,28 11.40335,27.888779 21.039713,28.216833 29.90625,27.84375 25.260874,19.960427 20.61669,11.748306 15.96875,4.0625 z"
       id="path4556"
       inkscape:connector-curvature="0" />
    <path
       style="color:#000000;fill:#ffde48;fill-opacity:1;fill-rule:evenodd;stroke:none;stroke-width:0.75599998;marker:none;visibility:visible;display:inline;overflow:visible;enable-background:accumulate"
       d="M 15.96875,8.03125 C 12.634708,14.027428 8.5480906,20.119197 5.6875,25.96875 12.625054,25.959402 19.563315,26.130236 26.5,25.9375 22.986197,19.993092 19.550416,13.819307 15.96875,8.03125 z"
       id="path4562"
       inkscape:connector-curvature="0" />
    <path
       style="font-size:medium;font-style:normal;font-variant:normal;font-weight:normal;font-stretch:normal;text-indent:0;text-align:start;text-decoration:none;line-height:normal;letter-spacing:normal;word-spacing:normal;text-transform:none;direction:ltr;block-progression:tb;writing-mode:lr-tb;text-anchor:start;baseline-shift:baseline;color:#000000;fill:#af8126;fill-opacity:1;fill-rule:nonzero;stroke:none;stroke-width:2;marker:none;visibility:visible;display:inline;overflow:visible;enable-background:accumulate;font-family:Sans;-inkscape-font-specification:Sans"
       d="M 14.8125,12 A 1.0001,1.0001 0 0 0 14,13.15625 l 1,6 a 1.0001,1.0001 0 0 0 2,0 l 1,-6 A 1.0001,1.0001 0 0 0 17,12 l -2,0 a 1.0001,1.0001 0 0 0 -0.09375,0 1.0001,1.0001 0 0 0 -0.09375,0 z m 0,10 A 1.0043849,1.0043849 0 0 0 15,24 l 2,0 a 1.0001,1.0001 0 1 0 0,-2 l -2,0 a 1.0001,1.0001 0 0 0 -0.09375,0 1.001098,1.001098 0 0 0 -0.09375,0 z"
       id="path4572"
       inkscape:connector-curvature="0" />
  </g>
</svg>
