<?xml version="1.0" encoding="UTF-8" standalone="no"?>
<!-- Created with Inkscape (http://www.inkscape.org/) -->

<svg
   xmlns:dc="http://purl.org/dc/elements/1.1/"
   xmlns:cc="http://creativecommons.org/ns#"
   xmlns:rdf="http://www.w3.org/1999/02/22-rdf-syntax-ns#"
   xmlns:svg="http://www.w3.org/2000/svg"
   xmlns="http://www.w3.org/2000/svg"
   xmlns:xlink="http://www.w3.org/1999/xlink"
   xmlns:sodipodi="http://sodipodi.sourceforge.net/DTD/sodipodi-0.dtd"
   xmlns:inkscape="http://www.inkscape.org/namespaces/inkscape"
   width="32"
   height="32"
   id="svg2"
   version="1.1"
   inkscape:version="0.48.0 r9654"
   sodipodi:docname="key.svg"
   style="display:inline"
   inkscape:export-filename="C:\Users\martin Boudreau\Sites Web\mentalistzlite\images\icones2\key.png"
   inkscape:export-xdpi="45"
   inkscape:export-ydpi="45">
  <defs
     id="defs4">
    <linearGradient
       id="linearGradient4182">
      <stop
         style="stop-color:#faeda6;stop-opacity:1;"
         offset="0"
         id="stop4184" />
      <stop
         id="stop4191"
         offset="0.80000001"
         style="stop-color:#f4d843;stop-opacity:1;" />
      <stop
         style="stop-color:#e1bf0d;stop-opacity:1;"
         offset="1"
         id="stop4187" />
    </linearGradient>
    <linearGradient
       inkscape:collect="always"
       xlink:href="#linearGradient4182"
       id="linearGradient4189"
       x1="13"
       y1="9"
       x2="23"
       y2="19"
       gradientUnits="userSpaceOnUse" />
  </defs>
  <sodipodi:namedview
     id="base"
     pagecolor="#8a8a8a"
     bordercolor="#cccccc"
     borderopacity="1"
     inkscape:pageopacity="0"
     inkscape:pageshadow="2"
     inkscape:zoom="1"
     inkscape:cx="-125.33966"
     inkscape:cy="16"
     inkscape:document-units="px"
     inkscape:current-layer="layer8"
     showgrid="false"
     inkscape:window-width="1366"
     inkscape:window-height="716"
     inkscape:window-x="-8"
     inkscape:window-y="-8"
     inkscape:window-maximized="1"
     fit-margin-top="0"
     fit-margin-left="0"
     fit-margin-right="0"
     fit-margin-bottom="0"
     inkscape:snap-grids="true"
     inkscape:snap-smooth-nodes="false"
     inkscape:object-nodes="true"
     inkscape:snap-nodes="true"
     inkscape:snap-bbox="true"
     inkscape:snap-global="true"
     inkscape:snap-page="true"
     inkscape:object-paths="true"
     inkscape:snap-bbox-edge-midpoints="true"
     showguides="true"
     inkscape:guide-bbox="true"
     showborder="false"
     borderlayer="false"
     inkscape:showpageshadow="false">
    <inkscape:grid
       type="xygrid"
       id="grid2988"
       empspacing="2"
       visible="true"
       enabled="true"
       snapvisiblegridlinesonly="true" />
    <inkscape:grid
       type="xygrid"
       id="grid4286"
       empspacing="32"
       visible="true"
       enabled="true"
       snapvisiblegridlinesonly="true"
       empcolor="#000000"
       empopacity="1"
       spacingx="32px"
       spacingy="32px"
       color="#000000"
       opacity="1" />
  </sodipodi:namedview>
  <metadata
     id="metadata7">
    <rdf:RDF>
      <cc:Work
         rdf:about="">
        <dc:format>image/svg+xml</dc:format>
        <dc:type
           rdf:resource="http://purl.org/dc/dcmitype/StillImage" />
        <dc:title></dc:title>
      </cc:Work>
    </rdf:RDF>
  </metadata>
  <g
     inkscape:groupmode="layer"
     id="layer8"
     inkscape:label="Key"
     style="display:inline">
    <path
       style="font-size:medium;font-style:normal;font-variant:normal;font-weight:normal;font-stretch:normal;text-indent:0;text-align:start;text-decoration:none;line-height:normal;letter-spacing:normal;word-spacing:normal;text-transform:none;direction:ltr;block-progression:tb;writing-mode:lr-tb;text-anchor:start;baseline-shift:baseline;color:#000000;fill:#da9030;fill-opacity:1;fill-rule:nonzero;stroke:none;stroke-width:2;marker:none;visibility:visible;display:inline;overflow:visible;enable-background:accumulate;font-family:Sans;-inkscape-font-specification:Sans"
       d="m 18.90625,0 a 1.0001,1.0001 0 0 0 -0.625,0.28125 l -8,8 A 1.0001,1.0001 0 0 0 10,9 l 0,2 a 1.0001,1.0001 0 0 0 0.28125,0.71875 L 12,13.4375 12,14.5625 10.5625,16 5,16 a 1.0001,1.0001 0 0 0 -1,1 l 0,3 -3,0 a 1.0001,1.0001 0 0 0 -1,1 l 0,8 a 1.0001,1.0001 0 0 0 0.28125,0.71875 l 2,2 A 1.0001,1.0001 0 0 0 3,32 l 4,0 A 1.0001,1.0001 0 0 0 7.71875,31.71875 L 19,20.4375 20.28125,21.71875 A 1.0001,1.0001 0 0 0 21,22 l 2,0 a 1.0001,1.0001 0 0 0 0.71875,-0.28125 l 8,-8 A 1.0001,1.0001 0 0 0 32,13 l 0,-2 a 1.0001,1.0001 0 0 0 -0.28125,-0.71875 l -10,-10 A 1.0001,1.0001 0 0 0 21,0 l -2,0 a 1.0001,1.0001 0 0 0 -0.09375,0 z"
       id="path4217"
       inkscape:connector-curvature="0" />
    <path
       style="font-size:medium;font-style:normal;font-variant:normal;font-weight:normal;font-stretch:normal;text-indent:0;text-align:start;text-decoration:none;line-height:normal;letter-spacing:normal;word-spacing:normal;text-transform:none;direction:ltr;block-progression:tb;writing-mode:lr-tb;text-anchor:start;baseline-shift:baseline;color:#000000;fill:#ffffff;fill-opacity:1;fill-rule:nonzero;stroke:none;stroke-width:2;marker:none;visibility:visible;display:inline;overflow:visible;enable-background:accumulate;font-family:Sans;-inkscape-font-specification:Sans"
       d="m 19.4375,2 1.125,0 9.4375,9.4375 0,1.125 -7.4375,7.4375 -1.125,0 -1.71875,-1.71875 a 1.0001,1.0001 0 0 0 -1.4375,0 L 6.5625,30 3.4375,30 2,28.5625 2,22 5,22 a 1.0001,1.0001 0 0 0 1,-1 l 0,-3 5,0 a 1.0001,1.0001 0 0 0 0.71875,-0.28125 l 2,-2 A 1.0001,1.0001 0 0 0 14,15 l 0,-2 A 1.0001,1.0001 0 0 0 13.71875,12.28125 L 12,10.5625 12,9.4375 19.4375,2 z"
       id="path3331"
       inkscape:connector-curvature="0" />
    <path
       style="font-size:medium;font-style:normal;font-variant:normal;font-weight:normal;font-stretch:normal;text-indent:0;text-align:start;text-decoration:none;line-height:normal;letter-spacing:normal;word-spacing:normal;text-transform:none;direction:ltr;block-progression:tb;writing-mode:lr-tb;text-anchor:start;baseline-shift:baseline;color:#000000;fill:url(#linearGradient4189);fill-opacity:1;stroke:none;stroke-width:4;marker:none;visibility:visible;display:inline;overflow:visible;enable-background:accumulate;font-family:Sans;-inkscape-font-specification:Sans"
       d="M 19.8125,3 20.1875,3 29,11.8125 29,12.1875 22.1875,19 21.8125,19 20.40625,17.59375 19,16.15625 17.59375,17.59375 6.1875,29 3.8125,29 3,28.1875 3,23 l 2,0 2,0 0,-2 0,-2 4,0 0.84375,0 0.5625,-0.59375 2,-2 L 15,15.84375 15,15 15,13 15,12.15625 14.40625,11.59375 13,10.1875 13,9.8125 19.8125,3 z"
       id="path4145"
       inkscape:connector-curvature="0" />
    <path
       style="color:#000000;fill:none;stroke:#da9030;stroke-width:2;stroke-linecap:round;stroke-linejoin:round;stroke-miterlimit:4;stroke-opacity:1;stroke-dasharray:none;stroke-dashoffset:0;marker:none;visibility:visible;display:inline;overflow:visible;enable-background:accumulate"
       d="m 21,7 4,4"
       id="path4155"
       inkscape:connector-curvature="0" />
    <path
       style="color:#000000;fill:#ffffff;fill-opacity:1;fill-rule:nonzero;stroke:#e4a936;stroke-width:1;stroke-linecap:round;stroke-linejoin:round;stroke-miterlimit:4;stroke-opacity:1;stroke-dasharray:none;stroke-dashoffset:0;marker:none;visibility:visible;display:inline;overflow:visible;enable-background:accumulate"
       d="m 6,27.5 12,-12"
       id="path4174"
       inkscape:connector-curvature="0"
       sodipodi:nodetypes="cc" />
  </g>
</svg>
